<?xml version="1.0" encoding="UTF-8"?>
<svg version="1.1" viewBox="0 0 24 16" xmlns="http://www.w3.org/2000/svg">
<title>cloud_download</title>
<desc>Created with Sketch.</desc>
<g fill="none" fill-rule="evenodd">
<g transform="translate(-372 -2284)">
<g transform="translate(100 2226)">
<g transform="translate(272 54)">
<polygon points="0 0 24 0 24 24 0 24"/>
<path d="m19.35 10.04c-0.68-3.45-3.71-6.04-7.35-6.04-2.89 0-5.4 1.64-6.65 4.04-3.01 0.32-5.35 2.87-5.35 5.96 0 3.31 2.69 6 6 6h13c2.76 0 5-2.24 5-5 0-2.64-2.05-4.78-4.65-4.96zm-2.35 2.96-4.65 4.65c-0.2 0.2-0.51 0.2-0.71 0l-4.64-4.65h3v-4h4v4h3z" fill="#1D1D1D"/>
</g>
</g>
</g>
</g>
</svg>
